<svg width="32" height="32" viewBox="0 0 32 32" fill="none" xmlns="http://www.w3.org/2000/svg">
<g id="&#240;&#159;&#166;&#134; icon &#34;search outline&#34;">
<path id="Vector" d="M27.6133 25.7199L23.08 21.1999C24.5427 19.3366 25.3363 17.0355 25.3333 14.6666C25.3333 12.5569 24.7077 10.4947 23.5357 8.74053C22.3636 6.9864 20.6977 5.61923 18.7486 4.8119C16.7996 4.00456 14.6548 3.79333 12.5857 4.2049C10.5166 4.61648 8.61596 5.63238 7.1242 7.12414C5.63244 8.6159 4.61654 10.5165 4.20496 12.5856C3.79339 14.6548 4.00462 16.7995 4.81196 18.7486C5.61929 20.6976 6.98646 22.3636 8.74059 23.5356C10.4947 24.7077 12.557 25.3333 14.6667 25.3333C17.0355 25.3362 19.3366 24.5426 21.2 23.0799L25.72 27.6133C25.844 27.7382 25.9914 27.8374 26.1539 27.9051C26.3164 27.9728 26.4907 28.0077 26.6667 28.0077C26.8427 28.0077 27.017 27.9728 27.1794 27.9051C27.3419 27.8374 27.4894 27.7382 27.6133 27.6133C27.7383 27.4893 27.8375 27.3419 27.9052 27.1794C27.9729 27.0169 28.0077 26.8426 28.0077 26.6666C28.0077 26.4906 27.9729 26.3163 27.9052 26.1538C27.8375 25.9914 27.7383 25.8439 27.6133 25.7199ZM6.66667 14.6666C6.66667 13.0844 7.13586 11.5376 8.01491 10.222C8.89397 8.90646 10.1434 7.88108 11.6052 7.27557C13.067 6.67007 14.6755 6.51165 16.2274 6.82033C17.7792 7.12901 19.2047 7.89094 20.3235 9.00976C21.4423 10.1286 22.2043 11.554 22.513 13.1059C22.8216 14.6577 22.6632 16.2663 22.0577 17.7281C21.4522 19.1899 20.4268 20.4393 19.1112 21.3184C17.7956 22.1974 16.2489 22.6666 14.6667 22.6666C12.5449 22.6666 10.5101 21.8238 9.00982 20.3235C7.50953 18.8232 6.66667 16.7883 6.66667 14.6666Z" fill="#231F20"/>
</g>
</svg>
